<svg preserveAspectRatio="none" width="100%" height="100%" overflow="visible" style="display: block;" viewBox="0 0 25.9873 25.9873" fill="none" xmlns="http://www.w3.org/2000/svg">
<g id="ant-design:read-outlined">
<path id="Vector" d="M23.5515 4.08626H17.7449C16.4989 4.08626 15.2807 4.44409 14.2326 5.11915L12.9942 5.91348L11.7557 5.11915C10.7086 4.44422 9.48911 4.08559 8.24336 4.08626H2.43683C1.98763 4.08626 1.62473 4.44916 1.62473 4.89836V19.3132C1.62473 19.7624 1.98763 20.1253 2.43683 20.1253H8.24336C9.48943 20.1253 10.7076 20.4831 11.7557 21.1582L12.8825 21.884C12.9155 21.9043 12.9535 21.917 12.9916 21.917C13.0297 21.917 13.0678 21.9068 13.1007 21.884L14.2275 21.1582C15.2782 20.4831 16.4989 20.1253 17.7449 20.1253H23.5515C24.0007 20.1253 24.3636 19.7624 24.3636 19.3132V4.89836C24.3636 4.44916 24.0007 4.08626 23.5515 4.08626ZM8.24336 18.298H3.45196V5.91348H8.24336C9.14174 5.91348 10.0148 6.1698 10.7685 6.65453L12.0069 7.44886L12.1821 7.56307V19.2878C10.974 18.6381 9.62393 18.298 8.24336 18.298ZM22.5364 18.298H17.7449C16.3644 18.298 15.0143 18.6381 13.8063 19.2878V7.56307L13.9814 7.44886L15.2198 6.65453C15.9736 6.1698 16.8466 5.91348 17.7449 5.91348H22.5364V18.298ZM10.0731 9.16189H5.35786C5.25888 9.16189 5.17767 9.24818 5.17767 9.35223V10.4942C5.17767 10.5983 5.25888 10.6846 5.35786 10.6846H10.0706C10.1696 10.6846 10.2508 10.5983 10.2508 10.4942V9.35223C10.2533 9.24818 10.1721 9.16189 10.0731 9.16189ZM15.735 9.35223V10.4942C15.735 10.5983 15.8162 10.6846 15.9152 10.6846H20.6279C20.7269 10.6846 20.8081 10.5983 20.8081 10.4942V9.35223C20.8081 9.24818 20.7269 9.16189 20.6279 9.16189H15.9152C15.8162 9.16189 15.735 9.24818 15.735 9.35223ZM10.0731 12.7148H5.35786C5.25888 12.7148 5.17767 12.8011 5.17767 12.9052V14.0472C5.17767 14.1512 5.25888 14.2375 5.35786 14.2375H10.0706C10.1696 14.2375 10.2508 14.1512 10.2508 14.0472V12.9052C10.2533 12.8011 10.1721 12.7148 10.0731 12.7148ZM20.6305 12.7148H15.9152C15.8162 12.7148 15.735 12.8011 15.735 12.9052V14.0472C15.735 14.1512 15.8162 14.2375 15.9152 14.2375H20.6279C20.7269 14.2375 20.8081 14.1512 20.8081 14.0472V12.9052C20.8106 12.8011 20.7294 12.7148 20.6305 12.7148Z" fill="var(--fill-0, #9D764F)"/>
</g>
</svg>
