<svg preserveAspectRatio="none" width="100%" height="100%" overflow="visible" style="display: block;" viewBox="0 0 28 38.5" fill="none" xmlns="http://www.w3.org/2000/svg">
<path id="Vector" d="M1.75 15.75V19.25C1.75 22.4989 3.04062 25.6147 5.33794 27.9121C7.63526 30.2094 10.7511 31.5 14 31.5C17.2489 31.5 20.3647 30.2094 22.6621 27.9121C24.9594 25.6147 26.25 22.4989 26.25 19.25V15.75M14 31.5V36.75M14 1.75C12.6076 1.75 11.2723 2.30312 10.2877 3.28769C9.30312 4.27226 8.75 5.60761 8.75 7V19.25C8.75 20.6424 9.30312 21.9777 10.2877 22.9623C11.2723 23.9469 12.6076 24.5 14 24.5C15.3924 24.5 16.7277 23.9469 17.7123 22.9623C18.6969 21.9777 19.25 20.6424 19.25 19.25V7C19.25 5.60761 18.6969 4.27226 17.7123 3.28769C16.7277 2.30312 15.3924 1.75 14 1.75Z" stroke="var(--stroke-0, white)" stroke-width="3.5" stroke-linecap="round" stroke-linejoin="round"/>
</svg>
