<svg preserveAspectRatio="none" width="100%" height="100%" overflow="visible" style="display: block;" viewBox="0 0 17.3249 12.9929" fill="none" xmlns="http://www.w3.org/2000/svg">
<g id="Group">
<path id="Vector" fill-rule="evenodd" clip-rule="evenodd" d="M2.16561 3.24805H4.33121L7.01873 0.560536C7.28646 0.292875 7.62754 0.110604 7.99885 0.0367659C8.37016 -0.0370719 8.75502 0.000838811 9.10479 0.145705C9.45456 0.290572 9.75352 0.53589 9.96388 0.850645C10.1742 1.1654 10.2866 1.53546 10.2866 1.91404V11.0789C10.2866 11.4575 10.1742 11.8275 9.96388 12.1423C9.75352 12.457 9.45456 12.7023 9.10479 12.8472C8.75502 12.9921 8.37016 13.03 7.99885 12.9562C7.62754 12.8823 7.28646 12.7 7.01873 12.4324L4.33121 9.74487H2.16561C1.59125 9.74487 1.04042 9.5167 0.634291 9.11058C0.228161 8.70445 0 8.15362 0 7.57926V5.41366C0 4.8393 0.228161 4.28847 0.634291 3.88234C1.04042 3.47621 1.59125 3.24805 2.16561 3.24805ZM15.3347 12.022C15.0477 12.3674 14.5301 12.3642 14.2129 12.048C13.8967 11.7307 13.901 11.2186 14.1793 10.8677C15.1668 9.62495 15.7031 8.08378 15.7006 6.49646C15.7031 4.90914 15.1668 3.36797 14.1793 2.12519C13.901 1.77436 13.8967 1.26219 14.2129 0.944931C14.5301 0.628752 15.0477 0.626587 15.3347 0.970918C16.6239 2.52331 17.3281 4.47853 17.3248 6.49646C17.3248 8.5971 16.5777 10.5223 15.3347 12.022ZM13.0196 9.71022C12.7532 10.0708 12.2335 10.0675 11.9162 9.75028C11.599 9.43302 11.6087 8.92302 11.8513 8.54512C12.2447 7.93435 12.4534 7.22297 12.4522 6.49646C12.4522 5.74175 12.2313 5.03792 11.8513 4.4478C11.6087 4.07098 11.599 3.5599 11.9162 3.24264C12.2335 2.92538 12.7532 2.92213 13.0207 3.2827C13.6834 4.18143 14.0764 5.29455 14.0764 6.49646C14.0783 7.65338 13.7077 8.78017 13.0196 9.71022Z" fill="var(--fill-0, #DADADA)"/>
</g>
</svg>
