<svg preserveAspectRatio="none" width="100%" height="100%" overflow="visible" style="display: block;" viewBox="0 0 286.496 64.3018" fill="none" xmlns="http://www.w3.org/2000/svg">
<g id="Union">
<mask id="path-1-inside-1_32028_87860" fill="white">
<path d="M148.235 14.1865H274.496C281.124 14.1865 286.496 19.5591 286.496 26.1865V52.3018C286.496 58.9292 281.124 64.3018 274.496 64.3018H12C5.37258 64.3018 0 58.9292 0 52.3018V26.1865C5.47118e-06 19.5591 5.37259 14.1865 12 14.1865H133.562L140.899 0L148.235 14.1865Z"/>
</mask>
<path d="M148.235 14.1865H274.496C281.124 14.1865 286.496 19.5591 286.496 26.1865V52.3018C286.496 58.9292 281.124 64.3018 274.496 64.3018H12C5.37258 64.3018 0 58.9292 0 52.3018V26.1865C5.47118e-06 19.5591 5.37259 14.1865 12 14.1865H133.562L140.899 0L148.235 14.1865Z" fill="var(--fill-0, #2E2E2E)"/>
<path d="M148.235 14.1865L147.347 14.6459L147.627 15.1865H148.235V14.1865ZM286.496 26.1865H287.496V26.1865H286.496ZM0 26.1865H-1V26.1865H0ZM133.562 14.1865V15.1865H134.171L134.451 14.6459L133.562 14.1865ZM140.899 0L141.788 -0.459328L140.899 -2.17698L140.011 -0.459376L140.899 0ZM148.235 14.1865V15.1865H274.496V14.1865V13.1865H148.235V14.1865ZM274.496 14.1865V15.1865C280.571 15.1865 285.496 20.1114 285.496 26.1865H286.496H287.496C287.496 19.0068 281.676 13.1865 274.496 13.1865V14.1865ZM286.496 26.1865H285.496V52.3018H286.496H287.496V26.1865H286.496ZM286.496 52.3018H285.496C285.496 58.3769 280.571 63.3018 274.496 63.3018V64.3018V65.3018C281.676 65.3018 287.496 59.4815 287.496 52.3018H286.496ZM274.496 64.3018V63.3018H12V64.3018V65.3018H274.496V64.3018ZM12 64.3018V63.3018C5.92487 63.3018 1 58.3769 1 52.3018H0H-1C-1 59.4815 4.8203 65.3018 12 65.3018V64.3018ZM0 52.3018H1V26.1865H0H-1V52.3018H0ZM0 26.1865H1C1.00001 20.1114 5.92487 15.1865 12 15.1865V14.1865V13.1865C4.8203 13.1865 -0.999994 19.0068 -1 26.1865H0ZM12 14.1865V15.1865H133.562V14.1865V13.1865H12V14.1865ZM133.562 14.1865L134.451 14.6459L141.788 0.459376L140.899 0L140.011 -0.459376L132.674 13.7271L133.562 14.1865ZM140.899 0L140.011 0.459328L147.347 14.6459L148.235 14.1865L149.124 13.7272L141.788 -0.459328L140.899 0Z" fill="var(--stroke-0, #525252)" mask="url(#path-1-inside-1_32028_87860)"/>
</g>
</svg>
