<svg preserveAspectRatio="none" width="100%" height="100%" overflow="visible" style="display: block;" viewBox="0 0 24 24" fill="none" xmlns="http://www.w3.org/2000/svg">
<g id="material-symbols:forward-10-rounded">
<path id="Vector" d="M12 22C10.75 22 9.57933 21.7627 8.488 21.288C7.39667 20.8133 6.44667 20.1717 5.638 19.363C4.82933 18.5543 4.18767 17.6043 3.713 16.513C3.23833 15.4217 3.00067 14.2507 3 13C2.99933 11.7493 3.237 10.5787 3.713 9.488C4.189 8.39733 4.83033 7.44733 5.637 6.638C6.44367 5.82867 7.39367 5.187 8.487 4.713C9.58033 4.239 10.7513 4.00133 12 4H12.15L11.3 3.15C11.1 2.95 11.004 2.71667 11.012 2.45C11.02 2.18333 11.116 1.95 11.3 1.75C11.5 1.55 11.7377 1.446 12.013 1.438C12.2883 1.43 12.5257 1.52567 12.725 1.725L15.3 4.3C15.5 4.5 15.6 4.73333 15.6 5C15.6 5.26667 15.5 5.5 15.3 5.7L12.725 8.275C12.525 8.475 12.2877 8.571 12.013 8.563C11.7383 8.555 11.5007 8.45067 11.3 8.25C11.1167 8.05 11.0207 7.81667 11.012 7.55C11.0033 7.28333 11.0993 7.05 11.3 6.85L12.15 6H12C10.05 6 8.396 6.67933 7.038 8.038C5.68 9.39667 5.00067 11.0507 5 13C4.99933 14.9493 5.67867 16.6037 7.038 17.963C8.39733 19.3223 10.0513 20.0013 12 20C13.9487 19.9987 15.603 19.3197 16.963 17.963C18.323 16.6063 19.002 14.952 19 13C19 12.7167 19.096 12.4793 19.288 12.288C19.48 12.0967 19.7173 12.0007 20 12C20.2827 11.9993 20.5203 12.0953 20.713 12.288C20.9057 12.4807 21.0013 12.718 21 13C21 14.25 20.7627 15.421 20.288 16.513C19.8133 17.605 19.1717 18.555 18.363 19.363C17.5543 20.171 16.6043 20.8127 15.513 21.288C14.4217 21.7633 13.2507 22.0007 12 22ZM9 11.5H8.25C8.03333 11.5 7.85433 11.429 7.713 11.287C7.57167 11.145 7.50067 10.966 7.5 10.75C7.49933 10.534 7.57033 10.355 7.713 10.213C7.85567 10.071 8.03467 10 8.25 10H9.75C9.96667 10 10.146 10.071 10.288 10.213C10.43 10.355 10.5007 10.534 10.5 10.75V15.25C10.5 15.4667 10.429 15.646 10.287 15.788C10.145 15.93 9.966 16.0007 9.75 16C9.534 15.9993 9.355 15.9283 9.213 15.787C9.071 15.6457 9 15.4667 9 15.25V11.5ZM12.5 16C12.2167 16 11.9793 15.904 11.788 15.712C11.5967 15.52 11.5007 15.2827 11.5 15V11C11.5 10.7167 11.596 10.4793 11.788 10.288C11.98 10.0967 12.2173 10.0007 12.5 10H14.5C14.7833 10 15.021 10.096 15.213 10.288C15.405 10.48 15.5007 10.7173 15.5 11V15C15.5 15.2833 15.404 15.521 15.212 15.713C15.02 15.905 14.7827 16.0007 14.5 16H12.5ZM13 14.5H14V11.5H13V14.5Z" fill="var(--fill-0, #F1F1F1)"/>
</g>
</svg>
