<svg preserveAspectRatio="none" width="100%" height="100%" overflow="visible" style="display: block;" viewBox="0 0 32 32" fill="none" xmlns="http://www.w3.org/2000/svg">
<g id="ion:play">
<path id="Vector" d="M10.312 27.5001C9.92822 27.4994 9.55127 27.3988 9.2182 27.2082C8.4682 26.7832 8.00195 25.9582 8.00195 25.0626V6.93761C8.00195 6.03949 8.4682 5.21699 9.2182 4.79199C9.55921 4.59601 9.94659 4.49523 10.3399 4.50017C10.7331 4.50512 11.1179 4.61562 11.4538 4.82011L26.9445 14.0926C27.2673 14.295 27.5334 14.5761 27.7179 14.9096C27.9024 15.243 27.9992 15.6178 27.9992 15.9989C27.9992 16.3799 27.9024 16.7547 27.7179 17.0881C27.5334 17.4216 27.2673 17.7027 26.9445 17.9051L11.4513 27.1801C11.1075 27.388 10.7137 27.4986 10.312 27.5001Z" fill="var(--fill-0, black)"/>
</g>
</svg>
