<svg preserveAspectRatio="none" width="100%" height="100%" overflow="visible" style="display: block;" viewBox="0 0 24 24" fill="none" xmlns="http://www.w3.org/2000/svg">
<g id="material-symbols:replay-10-rounded">
<path id="Vector" d="M9 11.5H8.25C8.03333 11.5 7.85433 11.429 7.713 11.287C7.57167 11.145 7.50067 10.966 7.5 10.75C7.49933 10.534 7.57033 10.355 7.713 10.213C7.85567 10.071 8.03467 10 8.25 10H9.75C9.96667 10 10.146 10.071 10.288 10.213C10.43 10.355 10.5007 10.534 10.5 10.75V15.25C10.5 15.4667 10.429 15.646 10.287 15.788C10.145 15.93 9.966 16.0007 9.75 16C9.534 15.9993 9.355 15.9283 9.213 15.787C9.071 15.6457 9 15.4667 9 15.25V11.5ZM12.5 16C12.2167 16 11.9793 15.904 11.788 15.712C11.5967 15.52 11.5007 15.2827 11.5 15V11C11.5 10.7167 11.596 10.4793 11.788 10.288C11.98 10.0967 12.2173 10.0007 12.5 10H14.5C14.7833 10 15.021 10.096 15.213 10.288C15.405 10.48 15.5007 10.7173 15.5 11V15C15.5 15.2833 15.404 15.521 15.212 15.713C15.02 15.905 14.7827 16.0007 14.5 16H12.5ZM13 14.5H14V11.5H13V14.5ZM12 22C10.75 22 9.57933 21.7627 8.488 21.288C7.39667 20.8133 6.44667 20.1717 5.638 19.363C4.82933 18.5543 4.18767 17.6043 3.713 16.513C3.23833 15.4217 3.00067 14.2507 3 13C3 12.7167 3.096 12.4793 3.288 12.288C3.48 12.0967 3.71733 12.0007 4 12C4.28267 11.9993 4.52033 12.0953 4.713 12.288C4.90567 12.4807 5.00133 12.718 5 13C5 14.95 5.67933 16.6043 7.038 17.963C8.39667 19.3217 10.0507 20.0007 12 20C13.9493 19.9993 15.6037 19.3203 16.963 17.963C18.3223 16.6057 19.0013 14.9513 19 13C18.9987 11.0487 18.3197 9.39467 16.963 8.038C15.6063 6.68133 13.952 6.002 12 6H11.85L12.7 6.85C12.9 7.05 12.996 7.28333 12.988 7.55C12.98 7.81667 12.884 8.05 12.7 8.25C12.5 8.45 12.2627 8.55433 11.988 8.563C11.7133 8.57167 11.4757 8.47567 11.275 8.275L8.7 5.7C8.5 5.5 8.4 5.26667 8.4 5C8.4 4.73333 8.5 4.5 8.7 4.3L11.275 1.725C11.475 1.525 11.7127 1.429 11.988 1.437C12.2633 1.445 12.5007 1.54933 12.7 1.75C12.8833 1.95 12.9793 2.18333 12.988 2.45C12.9967 2.71667 12.9007 2.95 12.7 3.15L11.85 4H12C13.25 4 14.421 4.23767 15.513 4.713C16.605 5.18833 17.555 5.83 18.363 6.638C19.171 7.446 19.8127 8.396 20.288 9.488C20.7633 10.58 21.0007 11.7507 21 13C20.9993 14.2493 20.762 15.4203 20.288 16.513C19.814 17.6057 19.1723 18.5557 18.363 19.363C17.5537 20.1703 16.6037 20.812 15.513 21.288C14.4223 21.764 13.2513 22.0013 12 22Z" fill="var(--fill-0, #F1F1F1)"/>
</g>
</svg>
