<svg preserveAspectRatio="none" width="100%" height="100%" overflow="visible" style="display: block;" viewBox="0 0 46.5251 44.1121" fill="none" xmlns="http://www.w3.org/2000/svg">
<g id="ph:translate">
<rect width="46.5251" height="44.1121" rx="15.285" fill="var(--fill-0, #4A4A4A)"/>
<path id="Vector" d="M34.44 30.9476L28.8086 19.6848C28.7418 19.5512 28.6391 19.4388 28.512 19.3603C28.385 19.2818 28.2385 19.2402 28.0891 19.2402C27.9397 19.2402 27.7933 19.2818 27.6662 19.3603C27.5392 19.4388 27.4364 19.5512 27.3696 19.6848L25.1865 24.0521C23.4752 23.9559 21.8288 23.3648 20.4471 22.3507C22.0682 20.6195 23.0504 18.3872 23.2316 16.0224H25.6762C25.8896 16.0224 26.0942 15.9377 26.245 15.7868C26.3959 15.6359 26.4807 15.4313 26.4807 15.2179C26.4807 15.0046 26.3959 14.7999 26.245 14.6491C26.0942 14.4982 25.8896 14.4134 25.6762 14.4134H20.0448V12.8045C20.0448 12.5911 19.9601 12.3865 19.8092 12.2356C19.6583 12.0848 19.4537 12 19.2403 12C19.027 12 18.8224 12.0848 18.6715 12.2356C18.5206 12.3865 18.4359 12.5911 18.4359 12.8045V14.4134H12.8045C12.5911 14.4134 12.3865 14.4982 12.2356 14.6491C12.0848 14.7999 12 15.0046 12 15.2179C12 15.4313 12.0848 15.6359 12.2356 15.7868C12.3865 15.9377 12.5911 16.0224 12.8045 16.0224H21.6166C21.4374 17.994 20.6005 19.8482 19.2403 21.2867C18.3928 20.3924 17.7419 19.3305 17.3297 18.1694C17.2958 18.0681 17.2421 17.9745 17.1716 17.8942C17.1012 17.8139 17.0155 17.7484 16.9194 17.7016C16.8234 17.6547 16.7191 17.6275 16.6124 17.6214C16.5057 17.6154 16.3989 17.6306 16.2982 17.6663C16.1975 17.7019 16.105 17.7573 16.0259 17.8291C15.9468 17.901 15.8828 17.9878 15.8377 18.0846C15.7925 18.1815 15.7671 18.2863 15.7629 18.393C15.7587 18.4998 15.7758 18.6063 15.8132 18.7064C16.2932 20.0638 17.0492 21.307 18.0336 22.3577C16.5179 23.4715 14.6854 24.0706 12.8045 24.0672C12.5911 24.0672 12.3865 24.152 12.2356 24.3029C12.0848 24.4537 12 24.6583 12 24.8717C12 25.0851 12.0848 25.2897 12.2356 25.4406C12.3865 25.5914 12.5911 25.6762 12.8045 25.6762C15.1381 25.6788 17.4048 24.8968 19.2403 23.4558C20.7383 24.6262 22.5264 25.367 24.4132 25.5988L21.7383 30.9476C21.6428 31.1384 21.627 31.3593 21.6944 31.5618C21.7618 31.7642 21.9069 31.9316 22.0978 32.0271C22.2886 32.1226 22.5095 32.1383 22.712 32.0709C22.9144 32.0035 23.0818 31.8584 23.1773 31.6676L24.564 28.8941H31.6143L33.001 31.6676C33.0679 31.8012 33.1707 31.9136 33.2978 31.9921C33.425 32.0706 33.5716 32.1122 33.721 32.112C33.8581 32.112 33.9929 32.0769 34.1127 32.01C34.2324 31.9432 34.3331 31.8469 34.4051 31.7302C34.4771 31.6135 34.5182 31.4804 34.5243 31.3434C34.5304 31.2064 34.5014 31.0702 34.44 30.9476ZM25.3685 27.2852L28.0896 21.8438L30.8098 27.2852H25.3685Z" fill="var(--fill-0, white)"/>
</g>
</svg>
