<svg preserveAspectRatio="none" width="100%" height="100%" overflow="visible" style="display: block;" viewBox="0 0 174.93 44.8174" fill="none" xmlns="http://www.w3.org/2000/svg">
<g id="Union">
<mask id="path-1-inside-1_32020_63415" fill="white">
<path d="M118.438 9.10938H162.93C169.557 9.10938 174.93 14.482 174.93 21.1094V32.8174C174.93 39.4447 169.557 44.8174 162.93 44.8174H12C5.37269 44.8174 0.000172314 39.4447 0 32.8174V21.1094C8.62504e-07 14.482 5.37258 9.10938 12 9.10938H104.398L111.418 0L118.438 9.10938Z"/>
</mask>
<path d="M118.438 9.10938H162.93C169.557 9.10938 174.93 14.482 174.93 21.1094V32.8174C174.93 39.4447 169.557 44.8174 162.93 44.8174H12C5.37269 44.8174 0.000172314 39.4447 0 32.8174V21.1094C8.62504e-07 14.482 5.37258 9.10938 12 9.10938H104.398L111.418 0L118.438 9.10938Z" fill="var(--fill-0, #404040)"/>
<path d="M118.438 9.10938L117.645 9.71976L117.946 10.1094H118.438V9.10938ZM174.93 32.8174L175.93 32.8174V32.8174H174.93ZM162.93 44.8174V45.8174V45.8174V44.8174ZM0 32.8174H-1V32.8174L0 32.8174ZM0 21.1094H-1V21.1094H0ZM12 9.10938V8.10938V8.10938V9.10938ZM104.398 9.10938V10.1094H104.89L105.191 9.71976L104.398 9.10938ZM111.418 0L112.21 -0.610384L111.418 -1.63831L110.626 -0.610384L111.418 0ZM118.438 9.10938V10.1094H162.93V9.10938V8.10938H118.438V9.10938ZM162.93 9.10938V10.1094C169.005 10.1094 173.93 15.0342 173.93 21.1094H174.93H175.93C175.93 13.9297 170.109 8.10938 162.93 8.10938V9.10938ZM174.93 21.1094H173.93V32.8174H174.93H175.93V21.1094H174.93ZM174.93 32.8174L173.93 32.8174C173.93 38.8924 169.005 43.8174 162.93 43.8174V44.8174V45.8174C170.109 45.8174 175.93 39.9969 175.93 32.8174L174.93 32.8174ZM162.93 44.8174V43.8174H12V44.8174V45.8174H162.93V44.8174ZM12 44.8174V43.8174C5.925 43.8174 1.00016 38.8924 1 32.8174L0 32.8174L-1 32.8174C-0.999813 39.9969 4.82038 45.8174 12 45.8174V44.8174ZM0 32.8174H1V21.1094H0H-1V32.8174H0ZM0 21.1094H1C1 15.0342 5.92487 10.1094 12 10.1094V9.10938V8.10938C4.8203 8.10938 -0.999999 13.9297 -1 21.1094H0ZM12 9.10938V10.1094H104.398V9.10938V8.10938H12V9.10938ZM104.398 9.10938L105.191 9.71976L112.21 0.610384L111.418 0L110.626 -0.610384L103.606 8.49899L104.398 9.10938ZM111.418 0L110.626 0.610384L117.645 9.71976L118.438 9.10938L119.23 8.49899L112.21 -0.610384L111.418 0Z" fill="var(--stroke-0, #525252)" mask="url(#path-1-inside-1_32020_63415)"/>
</g>
</svg>
